/* XPM */
static const char * Platform_WiiU_xpm[] = {
"96 32 99 2",
"   c #00ACC9",
".  c #FFFFFF",
"X  c #01ACCA",
"o  c #02ACCA",
"O  c #03ACCA",
"+  c #04ACCA",
"@  c #06ACCA",
"#  c #07ACCA",
"$  c #08ADCA",
"%  c #0AADCB",
"&  c #0EAECB",
"*  c #0FAECB",
"=  c #0EAFCC",
"-  c #10ADCA",
";  c #11ADCA",
":  c #11AECB",
">  c #11AFCB",
",  c #11AFCC",
"<  c #14AFCC",
"1  c #14B0CC",
"2  c #15B0CC",
"3  c #15B0CD",
"4  c #19B1CD",
"5  c #1AB1CD",
"6  c #1DB3CE",
"7  c #1FB3CE",
"8  c #1EB4CF",
"9  c #20B3CE",
"0  c #27B5D0",
"q  c #25B6D0",
"w  c #26B6D0",
"e  c #28B6D0",
"r  c #28B7D1",
"t  c #2CB5D0",
"y  c #2FB7D0",
"u  c #2FB7D1",
"i  c #31B7D0",
"p  c #32B7D1",
"a  c #35B8D2",
"s  c #35B9D2",
"d  c #36BBD3",
"f  c #38B9D2",
"g  c #39B9D2",
"h  c #43BFD6",
"j  c #45BFD6",
"k  c #44C0D6",
"l  c #4BC0D7",
"z  c #4AC1D7",
"x  c #4AC2D7",
"c  c #4CC4D9",
"v  c #4CC5D9",
"b  c #4CC4DA",
"n  c #4CC5DA",
"m  c #4DC5DA",
"M  c #52C4D9",
"N  c #55C5DA",
"B  c #56C5DA",
"V  c #57C6DA",
"C  c #5AC6DB",
"Z  c #5EC7DB",
"A  c #66CADD",
"S  c #6CCDDF",
"D  c #6ECDDF",
"F  c #79D0E1",
"G  c #7CD1E2",
"H  c #85D5E4",
"J  c #8DD8E6",
"K  c #90D8E6",
"L  c #95DAE7",
"P  c #9CDCE9",
"I  c #9EDDE9",
"U  c #A2DCE9",
"Y  c #A2DDE9",
"T  c #A5E0EB",
"R  c #A8E0EB",
"E  c #ACE1EC",
"W  c #AEE1EC",
"Q  c #AFE6EF",
"!  c #B0E4EE",
"~  c #B3E6EF",
"^  c #B4E5EF",
"/  c #B9E6EF",
"(  c #CBECF3",
")  c #CEEEF4",
"_  c #DAF2F6",
"`  c #E6F7FA",
"'  c #EBF8FA",
"]  c #EFF9FB",
"[  c #F1FAFC",
"{  c #F5FBFC",
"}  c #F4FBFD",
"|  c #F6FCFD",
" . c #F7FCFD",
".. c #F8FCFD",
"X. c #F8FDFD",
"o. c #FCFEFE",
"O. c #FDFEFE",
"+. c #FFFFFF",
"@. c #FFFFFF",
/* pixels */
". . . . . . . . . . . . . . . . . . . . . . . . . . . . . . . . . . . . . . . . . . . . . . . . . . . . . . . . . . . . . . . . . . . . . . . . . . . . . . . . . . . . . . . . . . . . . . . . ",
". . . . p - - - & - W . . . . B - - - - & - - - - x . . . . ~ - & - - & u . . . . . . . . . . . . . . . . . . . . . . . . . . . . . . . . . . . . . . . . . . . . . . . . . . . . . . . . . . . ",
". . p # X X X X X X E . . . . v X X X X X X X X X h . . . . Q X X X X     # y . . . . . . . . . . . . . . . . . . . . . . . . . . . . . . . . . . . . . . . . . . . . . . . . . . . . . . . . . ",
". s X X X X X X X X W . . . . n X X X X X X X X X h . . . . Q X X X       X X p . . . . . . . . . . . . . . . . . . . . . . . . . . . . . . . . . . . . . . . . . . . . . . . . . . . . . . . . ",
". & X X X X X X X X W . . . . n X X X X X X X X X h . . . . Q X X X X X X X X # . . . . . . . . . . . . . . . . . . . . . . . . . . . . . . . . . . . . . . . . . . . . . . . . . . . . . . . . ",
". X X X X X X X X X W . . . . n X X X X X X X X X h . . . . Q X X X X X X X X X . . . . . . . . . . . . . . . . . . . . . . . . . . . . . . . . . . . . . . . . . . . . . . . . . . . . . . . . ",
"x X X X X X X X X X E . . . . n X X X X X X X X X h . . . . Q X X X X X X X X X f . . . . . . . . . . . . . . . . . . . . . . . . . . . . . . . . . . . . . . . . . . . . . . . . . . . . . . . ",
"x X X X X X X X X X E . . . . v X X X X X X X X X h . . . . Q X X X X X X X X X f . . . . . . . . . . . . . . . . . . . . . . . . . . . . . . . . . . . . . . . . . . . . . . . . . . . . . . . ",
"x X X X X X X X X X W . . . . n X X X X X X X X X h . . . . Q X X X X X X X X X f . . . . . . . . . . . . . . . . . . . . . . . . . . . . . . . . . . . . . . . . . . . . . . . . . . . . . . . ",
"x X X X X X X X X X E . . . . n X X X X X X X X X h . . . . Q X X X X X X X X X f . . . . . . . . . . . . . . . . . . . . . . . . . . . . . . . . . . . . . . . . . . . . . . . . . . . . . . . ",
"x X X X X X X X X X W . . . . n   X X X X X X   X h . . . . Q   X X X X X X X X f . . . . . . . . . . . . . . . . . . . . . . . . . . . . . . . . . . . . . . . . . . . . . . . . . . . . . . . ",
"x X X X X X X X X X E . . . . b   X X X X X X     h . . . . Q     X X X X X X X f . . . . . . . . . . . . . . . . . . . . . . . . . . . . . . . . . . . . . . . . . . . . . . . . . . . . . . . ",
"x X X X X X X X X X W . . . . n X X X X X X X X X h . . . . Q X X X X X X X X X f . . . . . . . . . . . . . . . . . . . . . . . . . . . . . . . . . . . . . . . . . . . . . . . . . . . . . . . ",
"x X X X X X X X X X E . . . . n X X X X X X X X X h . . . . Q X X X X X X X X X f . . . . . . . . . . . . . . . . . . . . . . . . . . . . . . . . . . . . . . . . . . . . . . . . . . . . . . . ",
"x X X X X X X X X X E . . . . b X X X X X X X X X h . . . . Q X X X X X X X X X f . . . . . . . . . . . . . . . . . . . . . . . . . . . . . . . . . . . . . . . . . . . . . . . . . . . . . . . ",
"x X X X X X X X X X W . . . . b X X X X X X X X X h . . . . Q X X X X X X X X X f . . . . . . . . . . . . . . . . . . . . . . . . . . . . . . . . . . . . . . . . . . . . . . . . . . . . . . . ",
"x X X X X X X X X X U . . . . D X X X X X X X X X N . . . . W X X X X X X X X X f . . . . . . . . . . . . . . . . . . . . . . . . . . . . . . . . . . . . . . . . . . . . . . . . . . . . . . . ",
"x X X X X X X X X X H . . . . R X X X X X X X X X L . . . . P X X X X X X X X X f . . . . . . . . . . . . . . . . . . . . . . . . . . . . . . . . . . . . . . . . . . . . . . . . . . . . . . . ",
"x X X X X X X X X X C . . . . [ r X X X X X X X 6 ' . . . . S X X X X X X X X X f . . . . . . . . . . . . . . . . . . . . . . . . . . . . . . . . . . . . . . . . . . . . . . . . . . . . . . . ",
". X X X X X X X X X 5 { . . . . ( 5 X X X X X = ^ . . . . . 0 X X X X X X X X X f . . . . . . . . . . . . . . . . . . . . . . . . . . . . . . . . . . . . . . . . . . . . . . . . . . . . . . . ",
". X X X X X X X X X X T . . . . . _ Z 3 # , M ) . . . . . / X X X X X X X X X X f . . . . . . . . . . . . . . . . . . . . . . . . . . . . . . . . . . . . . . . . . . . . . . . . . . . . . . . ",
". X X X X X X X X X X 9 } . . . . . . { ` | . . . . . . | s X X X X X X X X X X f . . . . . . . . . . . . . . . . . . . . . . . . . . . . . . . . . . . . . . . . . . . . . . . . . . . . . . . ",
". X X X X X X X X X X X C ... . . . . . . . . . . . . . D X X X X X X X X X X X f . . . . . . . . . . . . . . . . . . . . . . . . . . . . . . . . . . . . . . . . . . . . . . . . . . . . . . . ",
". X X X X X X X X X X X X M ' . . . . . . . . . . . [ A   X X X X X X X X X X X f . . . . . . . . . . . . . . . . . . . . . . . . . . . . . . . . . . . . . . . . . . . . . . . . . . . . . . . ",
". X X X X X X X X X X X X X 8 L ] . . . . . . . { P 0 X X X X X X X X X X X X X f . . . . . . . . . . . . . . . . . . . . . . . . . . . . . . . . . . . . . . . . . . . . . . . . . . . . . . . ",
". X X X X X X X X X X X X X X X % j F J U K G x = X X X X X X X X X X X X X X X . . . . . . . . . . . . . . . . . . . . . . . . . . . . . . . . . . . . . . . . . . . . . . . . . . . . . . . . ",
". & X X X X X X X X X X X X X X X X X X X X X X X X X X X X X X X X X X X X X # . . . . . . . . . . . . . . . . . . . . . . . . . . . . . . . . . . . . . . . . . . . . . . . . . . . . . . . . ",
". u X X X X X X X X X X X X X X X X X X X X X X X X X X X X X X X X X X X X X 0 . . . . . . . . . . . . . . . . . . . . . . . . . . . . . . . . . . . . . . . . . . . . . . . . . . . . . . . . ",
". . 3 X X X X X X X X X X X X X X X X X X X X X X X X X X X X X X X X X X X - . . . . . . . . . . . . . . . . . . . . . . . . . . . . . . . . . . . . . . . . . . . . . . . . . . . . . . . . . ",
". . . 5 X X X X X X X X X X X X X X X X X X X X X X X X X X X X X X X X X 3 . . . . . . . . . . . . . . . . . . . . . . . . . . . . . . . . . . . . . . . . . . . . . . . . . . . . . . . . . . ",
". . . . f 8 3 - - & 1 - - , - - , , - , - - , - - - , , - - , - , - < 8 s . . . . . . . . . . . . . . . . . . . . . . . . . . . . . . . . . . . . . . . . . . . . . . . . . . . . . . . . . . . ",
". . . . . . . . . . . . . . . . . . . . . . . . . . . . . . . . . . . . . . . . . . . . . . . . . . . . . . . . . . . . . . . . . . . . . . . . . . . . . . . . . . . . . . . . . . . . . . . . "
};
